# xmcd CD database file
#
# Track frame offsets:
#	150
#	19950
#	39006
#	58825
#
# Disc length: 1034 seconds
#
# Revision: 0
# Processed by: cddbd v1.5.1PL0 Copyright (c) Steve Scherf et al.
# Submitted via: CDex 1.51
#
DISCID=2a040804
DTITLE=森村天馬・イノリ・流山詩紋／セフル・ラン - 遥かなる時空の中で〜八葉紗〜
DYEAR=2004
DGENRE=Vocal
TTITLE0=遥か、君のもとへ…
TTITLE1=flowin' 〜浮雲〜
TTITLE2=遥か、君のもとへ… karaoke
TTITLE3=flowin' 〜浮雲〜 karaoke
EXTD=YEAR: 2004
EXTT0=
EXTT1=
EXTT2=
EXTT3=
PLAYORDER=
